<svg width="15" height="24" viewBox="0 0 15 24" fill="none" xmlns="http://www.w3.org/2000/svg">
<path d="M4.7857 20.339L8.37498 20.339L8.37498 23.9283L4.78569 23.9283L4.7857 20.339ZM7.17857 -0.00024877C13.5795 0.262961 16.3671 6.72367 12.5625 11.5692C11.5694 12.7656 9.96623 13.5553 9.17659 14.5603C8.37498 15.5533 8.37498 16.7497 8.37498 17.9462L4.7857 17.9462C4.7857 15.9481 4.7857 14.2612 5.58731 13.0647C6.37695 11.8683 7.98016 11.1624 8.9732 10.3728C11.8686 7.69278 11.1507 3.9001 7.17856 3.58903C6.22663 3.58903 5.31368 3.96719 4.64056 4.64031C3.96743 5.31343 3.58928 6.22638 3.58928 7.17832L-4.62895e-06 7.17832C-3.40128e-06 5.27445 0.756309 3.44855 2.10255 2.10231C3.4488 0.756065 5.27469 -0.000247542 7.17857 -0.00024877Z" fill="white"/>
</svg>
