<svg width="33" height="32" viewBox="0 0 33 32" fill="none" xmlns="http://www.w3.org/2000/svg">
<path d="M2.80542 7.33341C2.80542 5.86066 3.99933 4.66675 5.47209 4.66675H26.8054C28.2782 4.66675 29.4721 5.86066 29.4721 7.33341V24.6667C29.4721 26.1395 28.2782 27.3334 26.8054 27.3334H5.47209C3.99933 27.3334 2.80542 26.1395 2.80542 24.6667V7.33341ZM14.8054 7.33341H5.47209V11.3334H14.8054V7.33341ZM17.4721 7.33341V11.3334H26.8054V7.33341H17.4721ZM26.8054 14.0001H17.4721V18.0001H26.8054V14.0001ZM26.8054 20.6667H17.4721V24.6667H26.8054V20.6667ZM14.8054 24.6667V20.6667H5.47209V24.6667H14.8054ZM5.47209 18.0001H14.8054V14.0001H5.47209V18.0001Z" fill="white"/>
</svg>
