<svg width="43" height="40" viewBox="0 0 43 40" fill="none" xmlns="http://www.w3.org/2000/svg">
<path d="M15.5342 14.1635L5.09198 24.6947L16.0489 35.745H18.5171V35.7407H20.9895L28.9593 27.703L15.5342 14.1635ZM18.5171 11.1552L31.9422 24.6947L37.908 18.6759L24.4829 5.13643L18.5171 11.1552ZM26.9553 35.7407H41.7221V39.9957H22.7362L14.3022 40L0.617645 26.1988C0.222167 25.7998 0 25.2588 0 24.6947C0 24.1305 0.222167 23.5895 0.617645 23.1905L22.9893 0.623971C23.1853 0.426163 23.4179 0.26924 23.674 0.162174C23.9301 0.0551083 24.2046 0 24.4818 0C24.7591 0 25.0336 0.0551083 25.2897 0.162174C25.5458 0.26924 25.7784 0.426163 25.9743 0.623971L42.3824 17.1718C42.7778 17.5707 43 18.1118 43 18.6759C43 19.2401 42.7778 19.7811 42.3824 20.1801L26.9553 35.7407Z" fill="white"/>
</svg>
