<svg width="39" height="39" viewBox="0 0 39 39" fill="none" xmlns="http://www.w3.org/2000/svg">
<path d="M27.2854 0.601202C28.087 -0.200401 29.3867 -0.200401 30.1883 0.601202L38.3988 8.81173C39.2004 9.61333 39.2004 10.913 38.3988 11.7146L11.7146 38.3988C11.3296 38.7837 10.8075 39 10.2632 39H2.05263C0.918994 39 0 38.081 0 36.9474V28.7368C0 28.1925 0.216259 27.6704 0.601202 27.2854L21.1271 6.75952L27.2854 0.601202ZM22.5789 11.1134L4.10526 29.5871V34.8947H9.41293L27.8866 16.4211L22.5789 11.1134ZM30.7895 13.5182L34.0445 10.2632L28.7368 4.95549L25.4818 8.21053L30.7895 13.5182Z" fill="white"/>
</svg>
