<svg xmlns="http://www.w3.org/2000/svg" xmlns:xlink="http://www.w3.org/1999/xlink" xmlns:serif="http://www.serif.com/" width="24" height="24" version="1.1" xml:space="preserve" style="fill-rule:evenodd;clip-rule:evenodd;stroke-linejoin:round;stroke-miterlimit:1.41421;"><rect id="backgroundrect" width="100%" height="100%" x="0" y="0" fill="none" stroke="none"/><g class="currentLayer" style=""><title>Layer 1</title><path id="telegram-1" d="M17.712859869003296,22.77899932861328 c0.32200002670288086,0.2280000001192093 0.737000048160553,0.2849999964237213 1.1069999933242798,0.14499999582767487 c0.3700000047683716,-0.14100000262260437 0.6420000195503235,-0.4570000171661377 0.7239999771118164,-0.8400000333786011 c0.8690000176429749,-4.084000110626221 2.9769999980926514,-14.420999526977539 3.7680001258850098,-18.13599967956543 c0.06000000238418579,-0.2800000011920929 -0.04000000283122063,-0.5709999799728394 -0.25999999046325684,-0.7580000162124634 c-0.2199999988079071,-0.18700000643730164 -0.5249999761581421,-0.2410000115633011 -0.796999990940094,-0.14000000059604645 c-4.192999839782715,1.5520000457763672 -17.106000900268555,6.396999835968018 -22.384000778198242,8.350000381469727 c-0.33500000834465027,0.12400000542402267 -0.5530000329017639,0.44600000977516174 -0.5419999957084656,0.7989999651908875 c0.012000001035630703,0.3540000319480896 0.25,0.6610000133514404 0.593000054359436,0.7639999985694885 c2.367000102996826,0.7080000042915344 5.473999977111816,1.693000078201294 5.473999977111816,1.693000078201294 c0,0 1.4520000219345093,4.385000228881836 2.2090001106262207,6.614999771118164 c0.0950000062584877,0.2800000011920929 0.3140000104904175,0.5 0.6030000448226929,0.5759999752044678 c0.2879999876022339,0.07500001043081284 0.5960000157356262,-0.004000000189989805 0.8109999895095825,-0.2070000022649765 c1.215999960899353,-1.1480000019073486 3.0959999561309814,-2.9230000972747803 3.0959999561309814,-2.9230000972747803 c0,0 3.572000026702881,2.61899995803833 5.5980000495910645,4.061999797821045 zm-11.010000228881836,-8.677000045776367 l1.6790000200271606,5.538000106811523 l0.37299999594688416,-3.506999969482422 c0,0 6.486999988555908,-5.85099983215332 10.1850004196167,-9.185999870300293 c0.1080000028014183,-0.09800000488758087 0.12300000339746475,-0.2619999945163727 0.032999999821186066,-0.37700000405311584 c-0.08900000900030136,-0.11500000208616257 -0.2529999911785126,-0.1420000046491623 -0.3760000169277191,-0.06400000303983688 c-4.2860002517700195,2.736999988555908 -11.894000053405762,7.5960001945495605 -11.894000053405762,7.5960001945495605 z" class="" transform="" fill="#ffffff" fill-opacity="1"/></g></svg>